0
SECTION
2
HEADER
9
$INSUNITS
70
4
0
ENDSEC
0
SECTION
2
ENTITIES
0
LWPOLYLINE
8
SITE_BOUNDARY
62
1
90
4
70
1
10
-50000.0
20
-40000.0
10
50000.0
20
-40000.0
10
50000.0
20
40000.0
10
-50000.0
20
40000.0
0
LWPOLYLINE
8
PLAN_A_1
62
7
90
4
70
1
10
-47500.0
20
23000.0
10
7500.0
20
23000.0
10
7500.0
20
35000.0
10
-47500.0
20
35000.0
0
LWPOLYLINE
8
PLAN_A_2
62
7
90
4
70
1
10
-47500.0
20
-16000.0
10
7500.0
20
-16000.0
10
7500.0
20
-4000.0
10
-47500.0
20
-4000.0
0
LWPOLYLINE
8
PLAN_B_1_10F
62
7
90
4
70
1
10
17500.0
20
-7500.0
10
32500.0
20
-7500.0
10
32500.0
20
7500.0
10
17500.0
20
7500.0
0
LINE
8
PLAN_WIN
62
6
10
-47500.0
20
23000.0
30
0
11
7500.0
21
23000.0
31
0
0
LWPOLYLINE
8
PLAN_WIN
62
6
90
2
70
0
10
-47500.0
20
-16000.0
91
1
10
7500.0
20
-16000.0
91
2
0
LWPOLYLINE
8
ADJ_BOUNDARY
62
2
90
3
70
0
10
-60000.0
20
-45000.0
10
-60000.0
20
85000.0
10
60000.0
20
85000.0
0
LINE
8
ROAD_CL
62
4
10
-60000.0
20
-55000.0
30
0
11
60000.0
21
-55000.0
31
0
0
LWPOLYLINE
8
ADJ_BLDG_5F
62
6
90
4
70
1
10
-35000.0
20
43000.0
10
-5000.0
20
43000.0
10
-5000.0
20
58000.0
10
-35000.0
20
58000.0
0
LWPOLYLINE
8
ADJ_BLDG_5F
62
6
90
4
70
1
10
5000.0
20
60000.0
10
35000.0
20
60000.0
10
35000.0
20
75000.0
10
5000.0
20
75000.0
0
LINE
8
ADJ_WIN
62
6
10
-35000.0
20
43000.0
30
0
11
-5000.0
21
43000.0
31
0
0
ENDSEC
0
EOF
