0
SECTION
2
HEADER
9
$INSUNITS
70
4
0
ENDSEC
0
SECTION
2
ENTITIES
0
LWPOLYLINE
8
SITE_BOUNDARY
62
1
90
4
70
1
10
-100000.0
20
-100000.0
10
100000.0
20
-100000.0
10
100000.0
20
100000.0
10
-100000.0
20
100000.0
0
LWPOLYLINE
8
CONTOUR_0
62
8
90
23
70
0
10
-110000.0
20
-102812.0
10
-100000.0
20
-104372.4
10
-90000.0
20
-105763.0
10
-80000.0
20
-106860.0
10
-70000.0
20
-107560.9
10
-60000.0
20
-107793.4
10
-50000.0
20
-107521.7
10
-40000.0
20
-106748.8
10
-30000.0
20
-105517.4
10
-20000.0
20
-103906.2
10
-10000.0
20
-102023.7
10
0.0
20
-100000.0
10
10000.0
20
-97976.3
10
20000.0
20
-96093.8
10
30000.0
20
-94482.6
10
40000.0
20
-93251.2
10
50000.0
20
-92478.3
10
60000.0
20
-92206.6
10
70000.0
20
-92439.1
10
80000.0
20
-93140.0
10
90000.0
20
-94237.0
10
100000.0
20
-95627.6
10
110000.0
20
-97188.0
0
LWPOLYLINE
8
CONTOUR_5
62
8
90
23
70
0
10
-110000.0
20
-67846.3
10
-100000.0
20
-68659.0
10
-90000.0
20
-68969.2
10
-80000.0
20
-68756.3
10
-70000.0
20
-68039.5
10
-60000.0
20
-66876.6
10
-50000.0
20
-65358.6
10
-40000.0
20
-63603.1
10
-30000.0
20
-61744.5
10
-20000.0
20
-59923.0
10
-10000.0
20
-58274.0
10
0.0
20
-56916.4
10
10000.0
20
-55943.9
10
20000.0
20
-55417.3
10
30000.0
20
-55359.7
10
40000.0
20
-55755.0
10
50000.0
20
-56549.5
10
60000.0
20
-57656.3
10
70000.0
20
-58962.9
10
80000.0
20
-60340.6
10
90000.0
20
-61654.8
10
100000.0
20
-62776.7
10
110000.0
20
-63593.8
0
LWPOLYLINE
8
CONTOUR_10
62
8
90
23
70
0
10
-110000.0
20
-26872.9
10
-100000.0
20
-26234.5
10
-90000.0
20
-25207.4
10
-80000.0
20
-23892.9
10
-70000.0
20
-22414.2
10
-60000.0
20
-20905.8
10
-50000.0
20
-19502.4
10
-40000.0
20
-18328.2
10
-30000.0
20
-17486.4
10
-20000.0
20
-17051.0
10
-10000.0
20
-17060.2
10
0.0
20
-17513.9
10
10000.0
20
-18373.4
10
20000.0
20
-19564.3
10
30000.0
20
-20983.3
10
40000.0
20
-22506.0
10
50000.0
20
-23997.1
10
60000.0
20
-25322.3
10
70000.0
20
-26358.3
10
80000.0
20
-27003.7
10
90000.0
20
-27187.2
10
100000.0
20
-26873.7
10
110000.0
20
-26067.3
0
LWPOLYLINE
8
CONTOUR_15
62
8
90
23
70
0
10
-110000.0
20
19810.7
10
-100000.0
20
21190.6
10
-90000.0
20
22497.2
10
-80000.0
20
23601.6
10
-70000.0
20
24391.3
10
-60000.0
20
24779.8
10
-50000.0
20
24713.6
10
-40000.0
20
24176.7
10
-30000.0
20
23192.6
10
-20000.0
20
21822.3
10
-10000.0
20
20159.8
10
0.0
20
18324.4
10
10000.0
20
16451.4
10
20000.0
20
14681.4
10
30000.0
20
13148.9
10
40000.0
20
11971.5
10
50000.0
20
11240.4
10
60000.0
20
11013.4
10
70000.0
20
11309.7
10
80000.0
20
12108.7
10
90000.0
20
13351.5
10
100000.0
20
14945.8
10
110000.0
20
16772.8
0
LWPOLYLINE
8
CONTOUR_20
62
8
90
23
70
0
10
-110000.0
20
66954.6
10
-100000.0
20
67666.0
10
-90000.0
20
67907.5
10
-80000.0
20
67643.2
10
-70000.0
20
66876.5
10
-60000.0
20
65649.8
10
-50000.0
20
64042.0
10
-40000.0
20
62161.7
10
-30000.0
20
60139.0
10
-20000.0
20
58115.1
10
-10000.0
20
56231.2
10
0.0
20
54617.3
10
10000.0
20
53381.9
10
20000.0
20
52603.7
10
30000.0
20
52325.1
10
40000.0
20
52549.2
10
50000.0
20
53240.2
10
60000.0
20
54325.6
10
70000.0
20
55703.2
10
80000.0
20
57249.0
10
90000.0
20
58827.8
10
100000.0
20
60303.7
10
110000.0
20
61551.9
0
LWPOLYLINE
8
CONTOUR
62
8
90
23
70
0
38
25000.0
10
-110000.0
20
108745.8
10
-100000.0
20
108043.4
10
-90000.0
20
106895.0
10
-80000.0
20
105391.7
10
-70000.0
20
103651.0
10
-60000.0
20
101807.1
10
-50000.0
20
100000.1
10
-40000.0
20
98365.0
10
-30000.0
20
97020.7
10
-20000.0
20
96060.5
10
-10000.0
20
95544.9
10
0.0
20
95496.6
10
10000.0
20
95899.5
10
20000.0
20
96699.4
10
30000.0
20
97809.4
10
40000.0
20
99117.0
10
50000.0
20
100493.1
10
60000.0
20
101803.4
10
70000.0
20
102919.0
10
80000.0
20
103727.7
10
90000.0
20
104142.8
10
100000.0
20
104110.6
10
110000.0
20
103615.3
0
LWPOLYLINE
8
PLAN_A_1
62
7
90
4
70
1
10
-50000.0
20
-61000.0
10
-10000.0
20
-61000.0
10
-10000.0
20
-49000.0
10
-50000.0
20
-49000.0
0
LWPOLYLINE
8
PLAN_A_2
62
7
90
4
70
1
10
5000.0
20
39000.0
10
45000.0
20
39000.0
10
45000.0
20
51000.0
10
5000.0
20
51000.0
0
LINE
8
PLAN_WIN
62
6
10
-50000.0
20
-61000.0
30
0
11
-10000.0
21
-61000.0
31
0
0
LINE
8
PLAN_WIN
62
6
10
5000.0
20
39000.0
30
0
11
45000.0
21
39000.0
31
0
0
ENDSEC
0
EOF
